<?xml version="1.0" encoding="UTF-8"?>
<svg id="Layer_1" xmlns="http://www.w3.org/2000/svg" xmlns:xlink="http://www.w3.org/1999/xlink" version="1.1" viewBox="0 0 512 512">
  <!-- Generator: Adobe Illustrator 29.3.1, SVG Export Plug-In . SVG Version: 2.1.0 Build 151)  -->
  <defs>
    <style>
      .st0 {
        fill: url(#linear-gradient);
      }

      .st1 {
        fill: #fff;
      }

      .st2 {
        opacity: .5;
      }
    </style>
    <linearGradient id="linear-gradient" x1="256" y1="505.7" x2="256" y2="-4.3" gradientTransform="translate(0 512) scale(1 -1)" gradientUnits="userSpaceOnUse">
      <stop offset="0" stop-color="#fef08b"/>
      <stop offset="1" stop-color="#51c1b5"/>
    </linearGradient>
  </defs>
  <g id="Layer_3">
    <rect class="st0" x="1" y="2.5" width="510" height="510" rx="50" ry="50"/>
  </g>
  <g id="Layer_2">
    <path class="st1" d="M309.7,88.4c14.4,0,24.9,2.5,31.6,7.5s11.1,12.9,13.1,23.7,3,25.2,3,43.3v187h-2.5L169.1,71.1h-85.4v17.3c7.7,0,14.1.9,19.3,2.6s10.2,5.1,15.1,10.1c3.8,3.9,8.1,9.4,12.8,16.4v246.8c0,19.2-1.2,33.9-3.5,43.9s-6.9,16.6-13.6,19.9-16.7,4.9-30.1,4.9v17.3h117.5v-17.3c-12.4,0-21.9-1.7-28.6-5.2-6.7-3.5-11.2-10.1-13.6-19.9-2.3-9.8-3.5-24.3-3.5-43.6v-218.1h2.5l208,308.8h16.6V165.7c0-18.5,1.1-33.4,3.3-44.7,2.2-11.3,6.6-19.6,13.3-24.8,6.7-5.2,16.4-7.8,29.1-7.8v-17.3h-118.5v17.3h0Z"/>
    <g class="st2">
      <path class="st1" d="M246.3,445.1c1.5,4.8,15.7-1.2,14-7-3,.4-15.5,2.2-14,7h0Z"/>
      <path class="st1" d="M175.3,432.1c.4,3.7,2.1,10.4,5.3,12.5.4-24.2,3-48.3,5.4-72.2,0,0-3.8,6.8-4.8,9.1-6.7,15.3-7.7,34.5-5.8,50.6h0Z"/>
      <path class="st1" d="M359,386.6c2.8,8,3,10.3,6.4,17.8.9,2.1,4.3,9.3,7.2,9,0,0-.3-11.4-2-14.8-1.8-3.8-11.6-12-11.6-12Z"/>
      <path class="st1" d="M466.8,383.3c-7-1-14.2-1.2-21.3-2.4-9.8-1.7-15.1-1.1-18.2,0-.9.3-.1,1,.4,1.3,15.5,6.7,34.1,13.3,42.8,3.3,1.4-1.6-2.1-1.9-3.7-2.2h0Z"/>
      <path class="st1" d="M463.8,365.1c-13.5-2.6-29.1,0-42.3,3.5-2.8.7-11,4.7-12.2,4.6-3-.3-9.9-4.7-13.4-6-16.1-5.7-33.9-11.3-51-12.1,6.6,6.2,18.4,6.4,27.2,10,33.5,13.6,49.4,60.5,32.1,92-14-3.7-24.1,10-20.9,22.9,5.3,21.2,34.9,11.6,30.3-10.9-.6-3.1-5-8-5.1-9.9,0-2,4.6-9.4,5.6-12.7,4.4-14,2.9-28-1.4-41.8,1.9-.4,2.7,1,3.8,2.1,11.6,12,15.5,21.3,30.4,32.2,1,.7,3.5,3.4,4.6,1.8l-59.3-69.5c28.1,10,47.6,36,80,29.9,8.8-1.6,22.6-8.1,30.3-12.9,1.2-.8,6.4-3.4,5.1-5.2-15.1-4.2-28.6-15.2-43.9-18.1h0ZM470.5,385.5c-8.7,10-27.2,3.3-42.8-3.3-.5-.2-1.3-1-.4-1.3,3.1-1.1,8.4-1.7,18.2,0,7,1.2,14.2,1.5,21.3,2.4,1.6.2,5.1.6,3.7,2.2h0Z"/>
      <path class="st1" d="M95.4,398.8l54.9-27.5c-7.7-.6-14.5,5-21.3,7.3-12.6,4.2-43.5,6.7-56.9,5.6-1.3-.1-5.8-.4-5.9-2.1l62.5-10.8c-14.3-6.3-27.7-10.2-43.6-8.6-19.4,1.9-35.4,11.5-53.4,17.8,19.1,12,40.2,24.7,63.6,18.4h.1Z"/>
      <path class="st1" d="M196.7,414.9c-.9-17.4-11.5-31.3-8.6-48-.8.7-2,1.9-3.1,3.1h0c-.3.1-6.1,7.3-6.4,7.6-24.4,28.3-24.4,74.7,7.4,98.2-1.4-21.5,11.9-39,10.8-60.9h0ZM180.6,444.6c-3.2-2.1-4.8-8.9-5.3-12.5-1.9-16.1-.9-35.3,5.8-50.6,1-2.3,4.8-9.1,4.8-9.1-2.4,24-5,48.1-5.4,72.2h0Z"/>
      <path class="st1" d="M112.7,436.5c-.6-7-2-7.5-8.9-6.7-7.9,1-24.1,7.7-30,13.2-8.6,8-9.4,23-5.4,33.5,2.7,7.1,6.4,6.5,13.6,5.9,22.7-2,32.6-25.5,30.7-45.9Z"/>
      <path class="st1" d="M337.9,420.4c-12.5-9.6-31.3-1.5-44,3.8l1.1,7.3c6.7-.8,9.6,1.4,14.9,4.5-2.5,4.8-12.9,4.4-14-1.1-2.9,1.6-3.9,4.2-2.2,7,.9,1.5,11.1,10.3,13.1,11.7,8.1,5.8,22.1,10.3,29.6,1.7,1.7-1.9,2.2-4.2,3.7-6,1.7-2,5-2.1,5.5-5.4.6-4.4-3.7-6.2-4.3-9.7-1.1-6.2,3.6-8.6-3.3-13.9h-.1Z"/>
      <path class="st1" d="M281.9,450.5c-1.1.7-1.3,1.5-1.1,2.7h6.4c2.2,7.9-9.7,12.5-10.7,4.8-.4-2.8,4.9-10.2-1.6-10.2s-11.9,26.2-11.3,31.8c.5,4.5,3.6,11.6,7.6,13.9,2.6,1.5,15.9,4.2,18.8,4,2.5-.2,12.8-6.1,14.6-8.2,3.1-3.7,4.8-10.3,4.3-15.1-.9-8.8-17.4-29.8-27-23.7h0Z"/>
      <path class="st1" d="M261.2,434.1c-1.3-.9-10.4-2-13-2.7-2.5-.7-3.9-3.2-6.5-2.8-4.5.6-20.7,9.5-23.5,13.3-8.2,11.6.2,15,5.2,22.8,1.5,2.3,1.3,5.3,3.4,7.3,6.3,5.9,17.5,4.8,23.7-1,5.4-5.2,18.1-31.7,10.5-36.9h.2ZM246.3,445.1c-1.5-4.8,11-6.6,14-7,1.7,5.8-12.5,11.8-14,7h0Z"/>
      <path class="st1" d="M309.9,378.3c-.7-.4-1.9-3.2-3.1-4.4-4-3.7-6.6-4.6-12.2-3.5-4,.8-12.8,7.1-13.6,11.3-.9,5.1,5.9,14.2,6.2,20.4.2,3.9-4.1,13.7-2.7,15.5,2.8,3.9,8.7-1.7,11.4-2.7,9-3.5,20.8-5.8,26.9-14,5.2-7,4.4-16.7-3.3-21.5-4.7-2.9-8.7-.5-9.7-1.1h.1Z"/>
      <path class="st1" d="M375.6,388.1c-4.9-3.9-13.9-5.9-16.8-8.5-4.4-4-11.7-18.7-15.6-24.3l-6.3.4c7.5,7,16.2,18.7,17.2,29.1,1.4,13.9-2.7,22.3,7.1,34.9,2.4,3,14.6,14,18.1,12.9,11.9-13.1,10-33.7-3.7-44.6h0ZM365.3,404.4c-3.4-7.5-3.5-9.8-6.4-17.8,0,0,9.8,8.2,11.6,12,1.6,3.3,2,14.8,2,14.8-2.9.3-6.2-6.8-7.2-9Z"/>
      <path class="st1" d="M65.7,438.1c8.3-9,23.8-16.2,36.2-15.1-.3-1.6-2-2.1-3.2-2.7-9.4-4.3-32.9-.4-42.4,3.9-5.9,2.7-17.4,13.1-19.9,16.9-3,4.5-6.2,14.3,1.9,16.9,4.3,1.4,10.9-1.5,14.8-3.6,8.3-4.7,7.1-10.3,12.7-16.4h0Z"/>
      <path class="st1" d="M468.2,438.4c-6.9.6-12.4,3.4-12.6,11.2-.4,15.4,8.7,28.8,25.3,22.1,19.1-7.7,6.1-34.9-12.7-33.2h0Z"/>
      <path class="st1" d="M122.4,442.4c.4,8.8-2.9,19.2-7,27-7.1,13.7-17.2,17.9-4.4,35.5,16.5-13.5,22.5-29.8,17.5-50.9-.9-3.7-2.8-9.7-6.1-11.6Z"/>
      <path class="st1" d="M190.9,361.6c1.5-1.3,1.8-2.5,1.6-4.4-10.2,2.7-21.1,5.9-30.2,11.3-12.9,7.6-35.2,33.9-42.2,47.3-.9,1.7-2.7,5.2-2.8,6.8,0,2.9,2.8,6.7,5.1,3.1,12.3-20.9,25.5-43.1,47.4-55,5-2.7,18.5-6.9,21.1-9.1h0Z"/>
      <path class="st1" d="M163,479.3c-6.6,1.9-6.9,14.4,1.8,13.8,9.9-.6,9-17-1.8-13.8Z"/>
      <path class="st1" d="M282,439.8c7.5-2.5,4.3-15-4.7-12.3-5.8,1.8-5.1,15.5,4.7,12.3Z"/>
      <path class="st1" d="M34.8,401.7c-9.4-5.4-14.2,14.8-1.4,12.7,5.9-1,4.2-11.1,1.4-12.7Z"/>
      <path class="st1" d="M57.6,494.8c4.2,5.2,13.9-1.4,8.5-6.9-4.4-4.4-13,1.1-8.5,6.9Z"/>
      <path class="st1" d="M50.5,469.5c-6.9-1.7-11.1,8.2-6.5,9.8,7.6,2.6,11.4-8.6,6.5-9.8Z"/>
      <path class="st1" d="M89.7,492.2c-4.5,1.3-4.7,11.6-.3,11.7,5.2.1,8.1-7.8,3.8-11.4-1.1-.7-2.3-.7-3.6-.4h0Z"/>
      <path class="st1" d="M4.5,381.2c-4.5,1.4-4.5,7.9,0,9.3,10.3,3.2,8.6-12,0-9.3Z"/>
      <path class="st1" d="M492.2,474.3c-1.7,10.1,12.3,7,9.6-2.6-3.6-1.8-8.7-2.3-9.6,2.6Z"/>
      <path class="st1" d="M477.8,484.7c-5.9,3-1,9.7,4,10.5,7.1-5.1,2.6-8.7-4-10.5Z"/>
      <path class="st1" d="M349.8,143.8c-.5-15.5-8.4-34-8.7-49.1,0-2.4,1-4.6,1.1-7,6,6.7,7.9,18.7,9.5,27.7,1.2,6.9,3.1,17.9,3.4,24.6.4,7.9-2.8,15.5.2,23,7.4,4.7,28-21,32-26.5,3.7-5,6.5-10.7,10.1-15.8,1.8-2.6,12.4-15.1,12.3-16.4-.5-1.5-3.2-5.5-5-4.4-14,16.6-23.5,39.6-40.5,53.4-1.3,1-6.8,5.7-8,4.3-1.3-14.7,7.4-26.6,8.6-41.5,1.9-23.2-9.7-44.5-25.3-60.9-.9-.9-5.9-6.6-7-5.4-8.1,33.8-13.3,69.6,17.2,93.8v.2Z"/>
      <path class="st1" d="M434.6,142.8l-30.9,7.4c14.8,0,29,8.6,43.7,8.7,14.5.1,41.1-10.9,53.7-18.5.7-.4,3.3-2.5,2.8-3.1-29.8-13.9-56.9-20.1-88.1-5.6l-40.2,22.8c16-2.1,28.4-12.6,44-15.9,15.1-3.2,33.8-3.4,49-1.1,1.1.2,4.3.3,4.1,1.8l-38.1,3.4h0Z"/>
      <path class="st1" d="M223.7,154.6c14.8-14.4,21.4-39.2,43.5-45.1,4.3,2.1,3.9,7.9,8.5,9.7,19.3,7.7,36-22.1,16.9-30.9-6.7-3.1-19.3-2.2-24.1,3.7-2.6,3.2-3.1,9-4.9,11.3-1.7,2-11.2,7.3-14.6,10.2-7.3,6.5-12.1,14.6-18.8,21.6-.9-15.4,3.6-30.5,8.3-45,5.2-16,8.8-26.2,20.1-38.9,0,0,.5-2,0-2.5-.4-.4-3.8,1.3-3.8,1.3-17,15.5-19.7,32.2-24.6,53.9-1.9-.3-1.9-2.2-2.3-3.6-3.5-12.7-2.7-23.4-8.8-36.5-1.5-3.2-7.9-15.8-11.9-14.7-6.4,1.7,2.6,9.4,4.4,12.5,15.2,25.8,16.5,64.2,12.1,93.1h0Z"/>
      <path class="st1" d="M98.6,82.3c-.5-4,1.6-11.9,6.8-10.6,6.9,4.1,0,13.4-6.8,11.7,1.4,7.5,8.6,7.8,14.4,10.7,6.3-13,25.9-16.4,28.4-30.9,2.2-13.1.2-23.4-12.3-26-21.1-5.2-33.4,5.3-34.9,26.3-.4,5.9-1.6,15.7,4.3,18.9h.1Z"/>
      <path class="st1" d="M413.7,92.8c11.3,5.7,28.8-7.3,34.1-16.6,6.5-11.4,5.2-30.9-.5-42.4-26.1,10.7-48.6,28-33.6,59Z"/>
      <path class="st1" d="M66.2,84c14,2.5.2-8.4,2.2-11.3,9.3-5.5,9.6,6.4,16.7,3.2,2.2-3.4-1.2-23.8-3-28.4-5.1-13-16.7-16.3-29.2-14.6-3,.4-9.5,1.9-11.7,4.3-5.7,6.4-5.5,8.6-4.2,20.8,1.4,13.2,17,23.7,29.1,25.9h.1Z"/>
      <path class="st1" d="M29.1,126.6c11.6,8.3,22.7-2.2,32.5-7.4,7.1-3.8,15.5-2.8,12-14.5-.2-.6-7-9.7-7.8-10.5-5.5-4.7-22.7-9.6-30-8.4-3.6.6-11.8,4.7-13.8,7.8-1.5,2.4-6.1,9.7-3.7,17.8,2.4,8.2,10,14.6,10.7,15.2h.1ZM54.4,101.7c2.4-2.5,11.3-2.2,13.8.2.7.6,1.5,2.6,1.2,3.5-.2.5-1.7,1.6-1.7,1.6-2.9,0-12.3,1.6-13.2-1.6-.3-.9-.8-3,0-3.6h0Z"/>
      <path class="st1" d="M165.5,128.2c-.7,8.9,2.1,17,0,25.3,7.2-2.9,14.8-4.9,21-9.7,18.5-14.4,20-40,8.7-59.3-15.5,12.9-28,21.7-29.6,43.7h0ZM181.1,133.8c-1.1,3.9-6.5,12.3-8,13.8s-4.2,1-3.8,0c2.3-6.3,11.2-30.1,17.2-37.1s.6-.4.6,0c0,6.6-5,19.5-6,23.2h0Z"/>
      <path class="st1" d="M92.7,152.4c1.2-1,9-8.5,9.2-9.2.5-2.4-11-5.5-13.9-7.6-5.2-3.7-9.1-11.8-16.5-11-16.7,1.8-24.7,21.9-7.7,30.8,11.4,6,18.9,4.8,28.9-3.1h0Z"/>
      <path class="st1" d="M93.3,128c8.3,5.8,16.6,7.6,26.6,4.7,5.6-18.3-7.3-44.9-29.2-30.9-13.5,8.6-8,18.7,2.6,26.1h0Z"/>
      <path class="st1" d="M279.4,49.1c17.7-7.4,16.3-38.4-4.2-35.6-13.4,1.9-23.7,16.3-15.3,28.8,5,7.6,10.9,10.4,19.5,6.8Z"/>
      <path class="st1" d="M130.6,86.8c-18.4,10.1.5,23.3-1.8,38.6,5.8-.8,13.9-3.7,18-7.9,7.8-8.2,13.7-24.4,2-32-6.1-3.9-12.3-1.9-18.1,1.3h0Z"/>
      <path class="st1" d="M208.3,44.2c4.4-5.2,3.2-14.4-.8-19.6-11.7-15.1-37.3-7.8-30.9,12.6,4.4,14.2,21.8,18.6,31.7,7Z"/>
      <path class="st1" d="M392,73c1.6,3.7,5.1,8.2,8.5,10.4v-16.7c0-1.9,4-9.9,5.2-12,3.2-5.5,10.7-11.3,11.1-17,.8-12.5-6.7-20.8-15.2-28.6,6.6,25.5-20.6,38.3-9.6,64h0Z"/>
      <path class="st1" d="M446.3,90.9l-17.8,9.7h15.6c5.9,0,30.4-12.6,34.3-17.2,1.9-2.3,2.2-7.7,5.1-11.4,2.6-3.3,7-5.5,10.3-8.1,1-.6-.8-2.1-1.1-2.2-3.3-.8-13,0-17.3,0s-8.6,3.6-10.3,4.8c-6.9,5.2-11.2,18.5-18.9,24.3h0Z"/>
      <path class="st1" d="M147.1,159.9c-5.8-7.5-15.8-12.4-17.3-22.6-2.1-.4-4.7.8-5.2,2.9-1.5,5.6,15.6,21.3,22.5,19.7h0Z"/>
      <path class="st1" d="M353.6,39.2c8.4-1.2,5-15.4-2.9-13.9-8.6,1.7-4.8,15,2.9,13.9Z"/>
      <path class="st1" d="M315.1,153.2c5.6-5.1.6-16.8-7.7-11.4-7.6,4.9,2,16.7,7.7,11.4Z"/>
      <path class="st1" d="M501.2,105.8c-3.8,3.8-1.5,9.8,2.8,10.6,12.5,2.1,8.7-18.2-2.8-10.6Z"/>
      <path class="st1" d="M472.3,40.3c-5.6.8-6.7,7.3-3.6,10.5,6.7,6.8,16.2-12.1,3.6-10.5Z"/>
      <path class="st1" d="M83.2,96.2c1.5.3,4.8-1.4,5.5-2.7s.5-7.3-1.1-8.8c-6.9-6.7-12.9,10.1-4.5,11.6h0Z"/>
      <path class="st1" d="M439.2,22.3c.5-1.6,0-5.3-1.2-6.5-2.9-3-10.8,1.9-8.2,6.5,3,5.4,5.8,4.1,9.5,0h0Z"/>
      <path class="st1" d="M2,151.4c5.6,4.5,11.3-3.9,6.8-8.5-4-4.2-12.2,4.2-6.8,8.5Z"/>
      <path class="st1" d="M457.1,29.5c8.6,5.6,9.6-11.9,1.4-9.6-4.2,1.2-5.6,6.9-1.4,9.6Z"/>
      <path class="st1" d="M276.2,416.2c.4-1.7-.6-15.1-1-17.6-1.6-9.8-8.3-22.9-19.7-22.2-2.5.2-4.6,1.4-6.9,1.6-2.6.2-5-2-7.7,0-3.6,2.7-1.7,7-3.8,9.9-3.6,5.2-8.6,3.6-7.5,12.2,2.1,15.6,21.1,23.2,33.8,28.4l4.4-5.9c-5.3-4.1-5.8-7.8-7.4-13.7,5.1-1.6,12.3,6,9.2,10.7,3.2.9,5.7-.2,6.5-3.4h0Z"/>
    </g>
  </g>
</svg>